<svg width="303" height="19" viewBox="0 0 303 19" fill="none" xmlns="http://www.w3.org/2000/svg">
<path d="M11.568 14.352L16.704 1.2C17.04 1.216 17.392 1.224 17.76 1.224C18.128 1.224 18.44 1.224 18.696 1.224C18.824 1.224 19.056 1.224 19.392 1.224C19.744 1.208 20.12 1.2 20.52 1.2C20.936 1.2 21.312 1.2 21.648 1.2C22 1.184 22.24 1.176 22.368 1.176C22.416 1.416 22.416 1.664 22.368 1.92H22.32C21.584 2 21.048 2.08 20.712 2.16C20.376 2.224 20.168 2.384 20.088 2.64C20.024 2.88 19.992 3.28 19.992 3.84L20.184 15.048C20.184 15.544 20.2 15.936 20.232 16.224C20.264 16.512 20.352 16.72 20.496 16.848C20.64 16.976 20.872 17.072 21.192 17.136C21.512 17.184 21.968 17.232 22.56 17.28C22.608 17.52 22.608 17.768 22.56 18.024C22.432 18.024 22.192 18.016 21.84 18C21.504 18 21.128 18 20.712 18C20.312 18 19.936 18 19.584 18C19.248 17.984 19.016 17.976 18.888 17.976C18.76 17.976 18.528 17.984 18.192 18C17.856 18 17.488 18 17.088 18C16.688 18 16.32 18 15.984 18C15.648 18.016 15.416 18.024 15.288 18.024C15.272 17.784 15.272 17.536 15.288 17.28H15.336C16.04 17.2 16.552 17.128 16.872 17.064C17.192 16.984 17.384 16.824 17.448 16.584C17.528 16.328 17.568 15.92 17.568 15.36L17.352 2.496L11.304 17.976C11.192 18.024 11.016 18.056 10.776 18.072C10.536 18.088 10.328 18.096 10.152 18.096L4.464 3L4.08 15.36C4.064 15.888 4.088 16.272 4.152 16.512C4.216 16.736 4.408 16.896 4.728 16.992C5.048 17.088 5.584 17.184 6.336 17.28C6.4 17.536 6.4 17.784 6.336 18.024C6.176 18.024 5.896 18.016 5.496 18C5.112 18 4.72 18 4.32 18C3.936 17.984 3.656 17.976 3.48 17.976C3.384 17.976 3.192 17.984 2.904 18C2.632 18 2.328 18 1.992 18C1.656 18 1.344 18 1.056 18C0.784 18.016 0.6 18.024 0.504 18.024C0.472 17.768 0.472 17.52 0.504 17.28C1.256 17.184 1.792 17.088 2.112 16.992C2.432 16.896 2.632 16.704 2.712 16.416C2.808 16.128 2.864 15.672 2.88 15.048L3.336 3.84C3.368 3.28 3.344 2.88 3.264 2.64C3.184 2.4 2.968 2.24 2.616 2.16C2.28 2.064 1.72 1.984 0.936 1.92C0.92 1.664 0.92 1.416 0.936 1.176C1.48 1.176 2.04 1.184 2.616 1.2C3.192 1.216 3.832 1.224 4.536 1.224C4.776 1.224 5.096 1.224 5.496 1.224C5.896 1.224 6.264 1.216 6.6 1.2L11.568 14.352ZM41.298 9.504C41.298 11.232 40.946 12.76 40.242 14.088C39.538 15.416 38.546 16.464 37.266 17.232C35.986 17.984 34.474 18.36 32.73 18.36C31.002 18.36 29.522 17.992 28.29 17.256C27.058 16.52 26.106 15.504 25.434 14.208C24.778 12.912 24.45 11.44 24.45 9.792C24.45 8.08 24.802 6.56 25.506 5.232C26.21 3.888 27.202 2.84 28.482 2.088C29.778 1.32 31.29 0.935999 33.018 0.935999C34.73 0.935999 36.202 1.304 37.434 2.04C38.666 2.776 39.618 3.792 40.29 5.088C40.962 6.368 41.298 7.84 41.298 9.504ZM38.322 9.744C38.322 8.768 38.226 7.816 38.034 6.888C37.842 5.96 37.53 5.12 37.098 4.368C36.682 3.616 36.13 3.024 35.442 2.592C34.754 2.144 33.914 1.92 32.922 1.92C31.914 1.92 31.058 2.144 30.354 2.592C29.666 3.04 29.106 3.632 28.674 4.368C28.258 5.104 27.946 5.928 27.738 6.84C27.546 7.752 27.45 8.68 27.45 9.624C27.45 10.552 27.546 11.48 27.738 12.408C27.946 13.32 28.266 14.152 28.698 14.904C29.13 15.656 29.698 16.264 30.402 16.728C31.122 17.176 31.986 17.4 32.994 17.4C33.986 17.4 34.818 17.184 35.49 16.752C36.178 16.32 36.73 15.744 37.146 15.024C37.562 14.288 37.858 13.464 38.034 12.552C38.226 11.64 38.322 10.704 38.322 9.744ZM57.3962 18.168L46.7162 4.152V14.424C46.7162 15.032 46.7322 15.504 46.7642 15.84C46.7962 16.16 46.8922 16.408 47.0522 16.584C47.2122 16.744 47.4602 16.88 47.7962 16.992C48.1322 17.104 48.6122 17.192 49.2362 17.256C49.2682 17.512 49.2682 17.768 49.2362 18.024C48.7562 18.024 48.2202 18.016 47.6282 18C47.0522 17.984 46.5642 17.976 46.1642 17.976C45.7642 17.976 45.2682 17.984 44.6762 18C44.1002 18.016 43.5802 18.024 43.1162 18.024C43.0682 17.784 43.0682 17.528 43.1162 17.256C43.6922 17.176 44.1402 17.104 44.4602 17.04C44.7802 16.96 45.0122 16.848 45.1562 16.704C45.3002 16.544 45.3882 16.312 45.4202 16.008C45.4682 15.704 45.4922 15.28 45.4922 14.736V4.896C45.4922 4.256 45.4682 3.752 45.4202 3.384C45.3882 3.016 45.2842 2.744 45.1082 2.568C44.9482 2.376 44.6922 2.24 44.3402 2.16C44.0042 2.064 43.5322 1.984 42.9242 1.92C42.9082 1.68 42.9082 1.432 42.9242 1.176C43.4202 1.176 43.9482 1.184 44.5082 1.2C45.0682 1.216 45.6282 1.224 46.1882 1.224C46.2682 1.224 46.4842 1.224 46.8362 1.224C47.2042 1.224 47.5242 1.216 47.7962 1.2L57.5402 14.016V4.8C57.5402 4.192 57.5242 3.72 57.4922 3.384C57.4762 3.048 57.3802 2.8 57.2042 2.64C56.8682 2.288 56.0602 2.064 54.7802 1.968C54.7322 1.696 54.7322 1.44 54.7802 1.2C55.0842 1.2 55.4442 1.208 55.8602 1.224C56.2922 1.224 56.7082 1.232 57.1082 1.248C57.5082 1.248 57.8362 1.248 58.0922 1.248C58.4922 1.248 58.9882 1.24 59.5802 1.224C60.1722 1.208 60.7002 1.2 61.1642 1.2C61.1962 1.44 61.1962 1.688 61.1642 1.944C60.3962 2.04 59.8442 2.152 59.5082 2.28C59.1722 2.392 58.9642 2.608 58.8842 2.928C58.8042 3.248 58.7642 3.768 58.7642 4.488V18.048C58.6042 18.08 58.3882 18.104 58.1162 18.12C57.8442 18.152 57.6042 18.168 57.3962 18.168ZM65.9154 18.024C65.8834 17.784 65.8834 17.528 65.9154 17.256C66.7154 17.176 67.2834 17.104 67.6194 17.04C67.9554 16.96 68.1634 16.8 68.2434 16.56C68.3234 16.32 68.3634 15.912 68.3634 15.336V2.232H66.6354C65.7874 2.232 65.1154 2.352 64.6194 2.592C64.1394 2.816 63.7474 3.16 63.4434 3.624C63.1554 4.088 62.8674 4.68 62.5794 5.4C62.3234 5.432 62.0674 5.432 61.8114 5.4C61.9074 4.632 61.9954 3.896 62.0754 3.192C62.1714 2.488 62.2514 1.808 62.3154 1.152C63.3554 1.216 64.5074 1.256 65.7714 1.272C67.0354 1.272 68.3474 1.272 69.7074 1.272C71.0834 1.272 72.4034 1.272 73.6674 1.272C74.9474 1.256 76.0994 1.216 77.1234 1.152C77.1874 1.792 77.2514 2.472 77.3154 3.192C77.3794 3.896 77.4594 4.632 77.5554 5.4C77.2834 5.432 77.0194 5.432 76.7634 5.4C76.4594 4.664 76.1554 4.064 75.8514 3.6C75.5474 3.136 75.1554 2.792 74.6754 2.568C74.2114 2.344 73.5554 2.232 72.7074 2.232H71.0034V15.024C71.0034 15.52 71.0194 15.912 71.0514 16.2C71.0834 16.488 71.1714 16.696 71.3154 16.824C71.4754 16.952 71.7234 17.048 72.0594 17.112C72.3954 17.16 72.8594 17.208 73.4514 17.256C73.4994 17.512 73.4994 17.768 73.4514 18.024C73.1154 18.024 72.7074 18.016 72.2274 18C71.7634 18 71.2994 18 70.8354 18C70.3714 17.984 69.9794 17.976 69.6594 17.976C69.3554 17.976 68.9714 17.984 68.5074 18C68.0594 18 67.5954 18 67.1154 18C66.6514 18.016 66.2514 18.024 65.9154 18.024ZM84.2199 10.416L83.5959 10.344V15.024C83.5959 15.52 83.6119 15.912 83.6439 16.2C83.6759 16.488 83.7559 16.696 83.8839 16.824C84.0279 16.952 84.2519 17.048 84.5559 17.112C84.8759 17.16 85.3159 17.208 85.8759 17.256C85.9239 17.512 85.9239 17.768 85.8759 18.024C85.5559 18.024 85.1719 18.016 84.7239 18C84.2759 18 83.8279 18 83.3799 18C82.9319 17.984 82.5559 17.976 82.2519 17.976C81.9639 17.976 81.5879 17.984 81.1239 18C80.6599 18 80.1959 18 79.7319 18C79.2679 18.016 78.8759 18.024 78.5559 18.024C78.5079 17.784 78.5079 17.528 78.5559 17.256C79.3239 17.192 79.8759 17.128 80.2119 17.064C80.5479 16.984 80.7559 16.824 80.8359 16.584C80.9159 16.328 80.9559 15.912 80.9559 15.336V4.152C80.9559 3.496 80.9079 3.024 80.8119 2.736C80.7319 2.448 80.5239 2.256 80.1879 2.16C79.8519 2.064 79.3079 1.992 78.5559 1.944C78.5079 1.704 78.5079 1.448 78.5559 1.176C78.8599 1.176 79.2519 1.184 79.7319 1.2C80.2279 1.2 80.7079 1.208 81.1719 1.224C81.6519 1.224 82.0039 1.224 82.2279 1.224C82.5159 1.224 82.8839 1.224 83.3319 1.224C83.7959 1.208 84.2519 1.192 84.6999 1.176C85.1639 1.16 85.5239 1.152 85.7799 1.152C86.7879 1.152 87.7239 1.288 88.5879 1.56C89.4679 1.832 90.1719 2.28 90.6999 2.904C91.2439 3.512 91.5159 4.336 91.5159 5.376C91.5159 6.4 91.2039 7.312 90.5799 8.112C89.9719 8.912 89.0039 9.512 87.6759 9.912V9.984C87.9159 10.176 88.1879 10.496 88.4919 10.944L91.0119 14.592C91.4279 15.184 91.7719 15.648 92.0439 15.984C92.3319 16.32 92.6039 16.576 92.8599 16.752C93.1159 16.912 93.4119 17.024 93.7479 17.088C94.0839 17.152 94.5079 17.208 95.0199 17.256C95.0679 17.512 95.0679 17.768 95.0199 18.024C94.7159 18.024 94.3399 18.016 93.8919 18C93.4439 18 93.0119 18 92.5959 18C92.1799 17.984 91.8439 17.976 91.5879 17.976C91.3319 17.976 91.1079 17.984 90.9159 18C90.7239 18 90.4999 18 90.2439 18L85.8039 11.448C85.5319 11.032 85.2919 10.768 85.0839 10.656C84.8759 10.528 84.5879 10.448 84.2199 10.416ZM83.5959 9.36C83.8039 9.392 83.9879 9.416 84.1479 9.432C84.3079 9.448 84.4599 9.456 84.6039 9.456C85.8519 9.456 86.8359 9.136 87.5559 8.496C88.2919 7.856 88.6599 6.912 88.6599 5.664C88.6599 4.528 88.3399 3.656 87.6999 3.048C87.0759 2.44 86.1479 2.136 84.9159 2.136C84.7559 2.136 84.5559 2.144 84.3159 2.16C84.0919 2.176 83.8519 2.2 83.5959 2.232V9.36ZM95.2686 18.024C95.2366 17.784 95.2366 17.528 95.2686 17.256C96.0206 17.176 96.5566 17.104 96.8766 17.04C97.1966 16.96 97.3966 16.8 97.4766 16.56C97.5566 16.304 97.5966 15.896 97.5966 15.336V4.176C97.5966 3.504 97.5566 3.024 97.4766 2.736C97.3966 2.448 97.1886 2.264 96.8526 2.184C96.5326 2.088 96.0046 2.008 95.2686 1.944C95.2366 1.704 95.2366 1.448 95.2686 1.176C95.6846 1.176 96.0446 1.184 96.3486 1.2C96.6686 1.2 96.9886 1.2 97.3086 1.2C97.6286 1.2 98.0126 1.208 98.4606 1.224C98.9086 1.224 99.4766 1.224 100.165 1.224C101.429 1.224 102.613 1.224 103.717 1.224C104.821 1.208 105.741 1.2 106.477 1.2C107.213 1.184 107.645 1.176 107.773 1.176C107.837 1.768 107.909 2.376 107.989 3C108.085 3.624 108.189 4.288 108.301 4.992C108.029 5.024 107.765 5.024 107.509 4.992C107.317 4.512 107.093 4.088 106.837 3.72C106.581 3.352 106.317 3.072 106.045 2.88C105.741 2.656 105.373 2.488 104.941 2.376C104.525 2.264 104.005 2.208 103.381 2.208H100.237V8.76H101.557C102.325 8.76 102.909 8.712 103.309 8.616C103.709 8.504 104.005 8.272 104.197 7.92C104.389 7.552 104.541 6.976 104.653 6.192C104.941 6.144 105.213 6.144 105.469 6.192C105.453 7.152 105.437 7.856 105.421 8.304C105.421 8.752 105.421 9.088 105.421 9.312C105.421 9.568 105.421 9.96 105.421 10.488C105.437 11 105.453 11.664 105.469 12.48C105.229 12.528 104.957 12.528 104.653 12.48C104.557 11.632 104.413 11.024 104.221 10.656C104.029 10.288 103.741 10.056 103.357 9.96C102.989 9.864 102.461 9.816 101.773 9.816H100.237V15.024C100.237 15.568 100.237 16.008 100.237 16.344C100.253 16.664 100.269 16.872 100.285 16.968H103.573C104.373 16.968 105.013 16.904 105.493 16.776C105.989 16.632 106.397 16.424 106.717 16.152C106.941 15.976 107.205 15.672 107.509 15.24C107.813 14.792 108.101 14.28 108.373 13.704C108.629 13.672 108.877 13.672 109.117 13.704C108.957 14.6 108.821 15.408 108.709 16.128C108.597 16.848 108.501 17.472 108.421 18C107.701 18 106.917 18 106.069 18C105.221 18 104.373 18 103.525 18C102.677 17.984 101.901 17.976 101.197 17.976C100.509 17.976 99.9566 17.976 99.5406 17.976C98.7886 17.976 98.1726 17.984 97.6926 18C97.2286 18 96.8126 18 96.4446 18C96.0926 18.016 95.7006 18.024 95.2686 18.024ZM115.972 18.336C115.956 18.336 115.692 18.32 115.18 18.288C114.684 18.272 114.108 18.208 113.452 18.096C112.908 18 112.412 17.936 111.964 17.904C111.532 17.856 111.268 17.832 111.172 17.832C111.156 16.504 111.084 14.896 110.956 13.008C111.084 12.992 111.212 12.984 111.34 12.984C111.484 12.984 111.612 12.984 111.724 12.984C112.028 14.392 112.532 15.48 113.236 16.248C113.956 17.016 114.9 17.4 116.068 17.4C117.108 17.4 117.956 17.12 118.612 16.56C119.268 15.984 119.596 15.232 119.596 14.304C119.596 13.6 119.412 13.024 119.044 12.576C118.692 12.128 118.22 11.752 117.628 11.448C117.052 11.128 116.436 10.832 115.78 10.56C115.012 10.224 114.276 9.872 113.572 9.504C112.884 9.12 112.316 8.632 111.868 8.04C111.42 7.448 111.196 6.68 111.196 5.736C111.196 4.728 111.444 3.864 111.94 3.144C112.452 2.424 113.132 1.88 113.98 1.512C114.828 1.128 115.764 0.935999 116.788 0.935999C117.108 0.935999 117.436 0.951999 117.772 0.983999C118.124 1.016 118.484 1.064 118.852 1.128C119.316 1.192 119.668 1.232 119.908 1.248C120.164 1.264 120.332 1.272 120.412 1.272C120.46 1.272 120.548 1.272 120.676 1.272C120.804 1.256 120.908 1.24 120.988 1.224C121.02 1.928 121.052 2.656 121.084 3.408C121.116 4.16 121.164 4.944 121.228 5.76C120.908 5.808 120.644 5.824 120.436 5.808C120.068 4.416 119.612 3.416 119.068 2.808C118.524 2.184 117.748 1.872 116.74 1.872C115.86 1.872 115.108 2.112 114.484 2.592C113.86 3.056 113.548 3.752 113.548 4.68C113.548 5.176 113.66 5.616 113.884 6C114.124 6.384 114.516 6.752 115.06 7.104C115.604 7.456 116.356 7.832 117.316 8.232C117.844 8.456 118.372 8.704 118.9 8.976C119.444 9.248 119.94 9.576 120.388 9.96C120.836 10.328 121.196 10.784 121.468 11.328C121.74 11.856 121.876 12.488 121.876 13.224C121.876 14.312 121.604 15.24 121.06 16.008C120.516 16.76 119.796 17.336 118.9 17.736C118.02 18.136 117.044 18.336 115.972 18.336ZM142.555 18.096C141.883 18.096 141.307 17.928 140.827 17.592C140.363 17.256 139.819 16.688 139.195 15.888C138.539 16.736 137.803 17.376 136.987 17.808C136.171 18.24 135.267 18.456 134.275 18.456C133.331 18.456 132.459 18.272 131.659 17.904C130.875 17.52 130.243 16.976 129.763 16.272C129.299 15.568 129.067 14.736 129.067 13.776C129.067 12.976 129.243 12.256 129.595 11.616C129.947 10.96 130.411 10.392 130.987 9.912C131.579 9.416 132.235 8.992 132.955 8.64C132.459 8.128 132.043 7.6 131.707 7.056C131.371 6.496 131.203 5.856 131.203 5.136C131.203 4.368 131.395 3.712 131.779 3.168C132.179 2.608 132.699 2.176 133.339 1.872C133.995 1.568 134.707 1.416 135.475 1.416C136.131 1.416 136.739 1.536 137.299 1.776C137.859 2.016 138.307 2.376 138.643 2.856C138.995 3.32 139.171 3.896 139.171 4.584C139.171 5.448 138.875 6.192 138.283 6.816C137.691 7.44 136.875 7.96 135.835 8.376C136.283 8.824 136.763 9.328 137.275 9.888C137.803 10.448 138.307 11.008 138.787 11.568C139.267 12.128 139.691 12.64 140.059 13.104C141.163 11.424 141.715 10.256 141.715 9.6C141.715 9.2 141.531 8.952 141.163 8.856C140.795 8.76 140.331 8.696 139.771 8.664C139.723 8.408 139.723 8.16 139.771 7.92C140.187 7.92 140.643 7.928 141.139 7.944C141.651 7.96 142.203 7.968 142.795 7.968C143.355 7.968 143.835 7.96 144.235 7.944C144.635 7.928 145.019 7.92 145.387 7.92C145.435 8.16 145.435 8.408 145.387 8.664C144.987 8.696 144.635 8.752 144.331 8.832C144.043 8.896 143.787 9.032 143.563 9.24C143.387 9.416 143.163 9.72 142.891 10.152C142.635 10.568 142.347 11.072 142.027 11.664C141.835 11.984 141.619 12.344 141.379 12.744C141.155 13.128 140.915 13.512 140.659 13.896C141.283 14.696 141.859 15.376 142.387 15.936C142.915 16.48 143.467 16.752 144.043 16.752C144.219 16.752 144.443 16.72 144.715 16.656C144.987 16.592 145.251 16.496 145.507 16.368C145.587 16.464 145.643 16.576 145.675 16.704C145.723 16.832 145.755 16.944 145.771 17.04C144.843 17.744 143.771 18.096 142.555 18.096ZM138.571 15.072C138.075 14.416 137.579 13.792 137.083 13.2C136.603 12.592 136.083 11.976 135.523 11.352C134.963 10.712 134.315 10.024 133.579 9.288C132.971 9.64 132.475 10.12 132.091 10.728C131.723 11.336 131.539 12.072 131.539 12.936C131.539 14.104 131.875 15.048 132.547 15.768C133.235 16.488 134.147 16.848 135.283 16.848C135.987 16.848 136.579 16.704 137.059 16.416C137.555 16.112 138.059 15.664 138.571 15.072ZM135.235 7.776C136.499 7.168 137.131 6.144 137.131 4.704C137.131 3.984 136.979 3.408 136.675 2.976C136.371 2.544 135.931 2.328 135.355 2.328C134.827 2.328 134.395 2.52 134.059 2.904C133.723 3.272 133.555 3.784 133.555 4.44C133.555 5.08 133.707 5.672 134.011 6.216C134.315 6.744 134.723 7.264 135.235 7.776ZM163.091 14.352L168.227 1.2C168.563 1.216 168.915 1.224 169.283 1.224C169.651 1.224 169.963 1.224 170.219 1.224C170.347 1.224 170.579 1.224 170.915 1.224C171.267 1.208 171.643 1.2 172.043 1.2C172.459 1.2 172.835 1.2 173.171 1.2C173.523 1.184 173.763 1.176 173.891 1.176C173.939 1.416 173.939 1.664 173.891 1.92H173.843C173.107 2 172.571 2.08 172.235 2.16C171.899 2.224 171.691 2.384 171.611 2.64C171.547 2.88 171.515 3.28 171.515 3.84L171.707 15.048C171.707 15.544 171.723 15.936 171.755 16.224C171.787 16.512 171.875 16.72 172.019 16.848C172.163 16.976 172.395 17.072 172.715 17.136C173.035 17.184 173.491 17.232 174.083 17.28C174.131 17.52 174.131 17.768 174.083 18.024C173.955 18.024 173.715 18.016 173.363 18C173.027 18 172.651 18 172.235 18C171.835 18 171.459 18 171.107 18C170.771 17.984 170.539 17.976 170.411 17.976C170.283 17.976 170.051 17.984 169.715 18C169.379 18 169.011 18 168.611 18C168.211 18 167.843 18 167.507 18C167.171 18.016 166.939 18.024 166.811 18.024C166.795 17.784 166.795 17.536 166.811 17.28H166.859C167.563 17.2 168.075 17.128 168.395 17.064C168.715 16.984 168.907 16.824 168.971 16.584C169.051 16.328 169.091 15.92 169.091 15.36L168.875 2.496L162.827 17.976C162.715 18.024 162.539 18.056 162.299 18.072C162.059 18.088 161.851 18.096 161.675 18.096L155.987 3L155.603 15.36C155.587 15.888 155.611 16.272 155.675 16.512C155.739 16.736 155.931 16.896 156.251 16.992C156.571 17.088 157.107 17.184 157.859 17.28C157.923 17.536 157.923 17.784 157.859 18.024C157.699 18.024 157.419 18.016 157.019 18C156.635 18 156.243 18 155.843 18C155.459 17.984 155.179 17.976 155.003 17.976C154.907 17.976 154.715 17.984 154.427 18C154.155 18 153.851 18 153.515 18C153.179 18 152.867 18 152.579 18C152.307 18.016 152.123 18.024 152.027 18.024C151.995 17.768 151.995 17.52 152.027 17.28C152.779 17.184 153.315 17.088 153.635 16.992C153.955 16.896 154.155 16.704 154.235 16.416C154.331 16.128 154.387 15.672 154.403 15.048L154.859 3.84C154.891 3.28 154.867 2.88 154.787 2.64C154.707 2.4 154.491 2.24 154.139 2.16C153.803 2.064 153.243 1.984 152.459 1.92C152.443 1.664 152.443 1.416 152.459 1.176C153.003 1.176 153.563 1.184 154.139 1.2C154.715 1.216 155.355 1.224 156.059 1.224C156.299 1.224 156.619 1.224 157.019 1.224C157.419 1.224 157.787 1.216 158.123 1.2L163.091 14.352ZM175.565 18.024C175.533 17.784 175.533 17.528 175.565 17.256C176.317 17.176 176.853 17.104 177.173 17.04C177.493 16.96 177.693 16.8 177.773 16.56C177.853 16.304 177.893 15.896 177.893 15.336V4.176C177.893 3.504 177.853 3.024 177.773 2.736C177.693 2.448 177.485 2.264 177.149 2.184C176.829 2.088 176.301 2.008 175.565 1.944C175.533 1.704 175.533 1.448 175.565 1.176C175.981 1.176 176.341 1.184 176.645 1.2C176.965 1.2 177.285 1.2 177.605 1.2C177.925 1.2 178.309 1.208 178.757 1.224C179.205 1.224 179.773 1.224 180.461 1.224C181.725 1.224 182.909 1.224 184.013 1.224C185.117 1.208 186.037 1.2 186.773 1.2C187.509 1.184 187.941 1.176 188.069 1.176C188.133 1.768 188.205 2.376 188.285 3C188.381 3.624 188.485 4.288 188.597 4.992C188.325 5.024 188.061 5.024 187.805 4.992C187.613 4.512 187.389 4.088 187.133 3.72C186.877 3.352 186.613 3.072 186.341 2.88C186.037 2.656 185.669 2.488 185.237 2.376C184.821 2.264 184.301 2.208 183.677 2.208H180.533V8.76H181.853C182.621 8.76 183.205 8.712 183.605 8.616C184.005 8.504 184.301 8.272 184.493 7.92C184.685 7.552 184.837 6.976 184.949 6.192C185.237 6.144 185.509 6.144 185.765 6.192C185.749 7.152 185.733 7.856 185.717 8.304C185.717 8.752 185.717 9.088 185.717 9.312C185.717 9.568 185.717 9.96 185.717 10.488C185.733 11 185.749 11.664 185.765 12.48C185.525 12.528 185.253 12.528 184.949 12.48C184.853 11.632 184.709 11.024 184.517 10.656C184.325 10.288 184.037 10.056 183.653 9.96C183.285 9.864 182.757 9.816 182.069 9.816H180.533V15.024C180.533 15.568 180.533 16.008 180.533 16.344C180.549 16.664 180.565 16.872 180.581 16.968H183.869C184.669 16.968 185.309 16.904 185.789 16.776C186.285 16.632 186.693 16.424 187.013 16.152C187.237 15.976 187.501 15.672 187.805 15.24C188.109 14.792 188.397 14.28 188.669 13.704C188.925 13.672 189.173 13.672 189.413 13.704C189.253 14.6 189.117 15.408 189.005 16.128C188.893 16.848 188.797 17.472 188.717 18C187.997 18 187.213 18 186.365 18C185.517 18 184.669 18 183.821 18C182.973 17.984 182.197 17.976 181.493 17.976C180.805 17.976 180.253 17.976 179.837 17.976C179.085 17.976 178.469 17.984 177.989 18C177.525 18 177.109 18 176.741 18C176.389 18.016 175.997 18.024 175.565 18.024ZM196.509 10.416L195.885 10.344V15.024C195.885 15.52 195.901 15.912 195.933 16.2C195.965 16.488 196.045 16.696 196.173 16.824C196.317 16.952 196.541 17.048 196.845 17.112C197.165 17.16 197.605 17.208 198.165 17.256C198.213 17.512 198.213 17.768 198.165 18.024C197.845 18.024 197.461 18.016 197.013 18C196.565 18 196.117 18 195.669 18C195.221 17.984 194.845 17.976 194.541 17.976C194.253 17.976 193.877 17.984 193.413 18C192.949 18 192.485 18 192.021 18C191.557 18.016 191.165 18.024 190.845 18.024C190.797 17.784 190.797 17.528 190.845 17.256C191.613 17.192 192.165 17.128 192.501 17.064C192.837 16.984 193.045 16.824 193.125 16.584C193.205 16.328 193.245 15.912 193.245 15.336V4.152C193.245 3.496 193.197 3.024 193.101 2.736C193.021 2.448 192.813 2.256 192.477 2.16C192.141 2.064 191.597 1.992 190.845 1.944C190.797 1.704 190.797 1.448 190.845 1.176C191.149 1.176 191.541 1.184 192.021 1.2C192.517 1.2 192.997 1.208 193.461 1.224C193.941 1.224 194.293 1.224 194.517 1.224C194.805 1.224 195.173 1.224 195.621 1.224C196.085 1.208 196.541 1.192 196.989 1.176C197.453 1.16 197.813 1.152 198.069 1.152C199.077 1.152 200.013 1.288 200.877 1.56C201.757 1.832 202.461 2.28 202.989 2.904C203.533 3.512 203.805 4.336 203.805 5.376C203.805 6.4 203.493 7.312 202.869 8.112C202.261 8.912 201.293 9.512 199.965 9.912V9.984C200.205 10.176 200.477 10.496 200.781 10.944L203.301 14.592C203.717 15.184 204.061 15.648 204.333 15.984C204.621 16.32 204.893 16.576 205.149 16.752C205.405 16.912 205.701 17.024 206.037 17.088C206.373 17.152 206.797 17.208 207.309 17.256C207.357 17.512 207.357 17.768 207.309 18.024C207.005 18.024 206.629 18.016 206.181 18C205.733 18 205.301 18 204.885 18C204.469 17.984 204.133 17.976 203.877 17.976C203.621 17.976 203.397 17.984 203.205 18C203.013 18 202.789 18 202.533 18L198.093 11.448C197.821 11.032 197.581 10.768 197.373 10.656C197.165 10.528 196.877 10.448 196.509 10.416ZM195.885 9.36C196.093 9.392 196.277 9.416 196.437 9.432C196.597 9.448 196.749 9.456 196.893 9.456C198.141 9.456 199.125 9.136 199.845 8.496C200.581 7.856 200.949 6.912 200.949 5.664C200.949 4.528 200.629 3.656 199.989 3.048C199.365 2.44 198.437 2.136 197.205 2.136C197.045 2.136 196.845 2.144 196.605 2.16C196.381 2.176 196.141 2.2 195.885 2.232V9.36ZM212.425 18.168L207.241 4.488C207.033 3.912 206.849 3.464 206.689 3.144C206.545 2.824 206.385 2.584 206.209 2.424C206.033 2.264 205.801 2.16 205.513 2.112C205.241 2.048 204.873 1.992 204.409 1.944C204.361 1.688 204.361 1.432 204.409 1.176C204.969 1.176 205.553 1.184 206.161 1.2C206.785 1.216 207.385 1.224 207.961 1.224C208.313 1.224 208.713 1.224 209.161 1.224C209.625 1.208 210.081 1.2 210.529 1.2C210.993 1.184 211.401 1.176 211.753 1.176C211.801 1.416 211.801 1.672 211.753 1.944C210.905 2.008 210.313 2.088 209.977 2.184C209.641 2.28 209.473 2.472 209.473 2.76C209.473 2.872 209.497 3.016 209.545 3.192C209.609 3.352 209.681 3.544 209.761 3.768L213.865 14.76L217.873 4.2C217.985 3.896 218.073 3.64 218.137 3.432C218.201 3.208 218.233 3.024 218.233 2.88C218.233 2.56 218.065 2.344 217.729 2.232C217.409 2.104 216.801 2.008 215.905 1.944C215.857 1.672 215.857 1.416 215.905 1.176C216.145 1.176 216.497 1.184 216.961 1.2C217.425 1.2 217.889 1.208 218.353 1.224C218.817 1.224 219.169 1.224 219.409 1.224C219.921 1.224 220.377 1.216 220.777 1.2C221.193 1.184 221.649 1.176 222.145 1.176C222.193 1.432 222.193 1.688 222.145 1.944C221.681 1.992 221.297 2.04 220.993 2.088C220.705 2.136 220.457 2.24 220.249 2.4C220.041 2.56 219.841 2.816 219.649 3.168C219.473 3.504 219.265 3.984 219.025 4.608L213.721 17.976C213.529 18.04 213.305 18.088 213.049 18.12C212.809 18.152 212.601 18.168 212.425 18.168ZM222.019 18.024C221.987 17.784 221.987 17.528 222.019 17.256C222.771 17.176 223.307 17.104 223.627 17.04C223.947 16.96 224.147 16.8 224.227 16.56C224.307 16.304 224.347 15.896 224.347 15.336V4.176C224.347 3.504 224.307 3.024 224.227 2.736C224.147 2.448 223.939 2.264 223.603 2.184C223.283 2.088 222.755 2.008 222.019 1.944C221.987 1.704 221.987 1.448 222.019 1.176C222.435 1.176 222.795 1.184 223.099 1.2C223.419 1.2 223.739 1.2 224.059 1.2C224.379 1.2 224.763 1.208 225.211 1.224C225.659 1.224 226.227 1.224 226.915 1.224C228.179 1.224 229.363 1.224 230.467 1.224C231.571 1.208 232.491 1.2 233.227 1.2C233.963 1.184 234.395 1.176 234.523 1.176C234.587 1.768 234.659 2.376 234.739 3C234.835 3.624 234.939 4.288 235.051 4.992C234.779 5.024 234.515 5.024 234.259 4.992C234.067 4.512 233.843 4.088 233.587 3.72C233.331 3.352 233.067 3.072 232.795 2.88C232.491 2.656 232.123 2.488 231.691 2.376C231.275 2.264 230.755 2.208 230.131 2.208H226.987V8.76H228.307C229.075 8.76 229.659 8.712 230.059 8.616C230.459 8.504 230.755 8.272 230.947 7.92C231.139 7.552 231.291 6.976 231.403 6.192C231.691 6.144 231.963 6.144 232.219 6.192C232.203 7.152 232.187 7.856 232.171 8.304C232.171 8.752 232.171 9.088 232.171 9.312C232.171 9.568 232.171 9.96 232.171 10.488C232.187 11 232.203 11.664 232.219 12.48C231.979 12.528 231.707 12.528 231.403 12.48C231.307 11.632 231.163 11.024 230.971 10.656C230.779 10.288 230.491 10.056 230.107 9.96C229.739 9.864 229.211 9.816 228.523 9.816H226.987V15.024C226.987 15.568 226.987 16.008 226.987 16.344C227.003 16.664 227.019 16.872 227.035 16.968H230.323C231.123 16.968 231.763 16.904 232.243 16.776C232.739 16.632 233.147 16.424 233.467 16.152C233.691 15.976 233.955 15.672 234.259 15.24C234.563 14.792 234.851 14.28 235.123 13.704C235.379 13.672 235.627 13.672 235.867 13.704C235.707 14.6 235.571 15.408 235.459 16.128C235.347 16.848 235.251 17.472 235.171 18C234.451 18 233.667 18 232.819 18C231.971 18 231.123 18 230.275 18C229.427 17.984 228.651 17.976 227.947 17.976C227.259 17.976 226.707 17.976 226.291 17.976C225.539 17.976 224.923 17.984 224.443 18C223.979 18 223.563 18 223.195 18C222.843 18.016 222.451 18.024 222.019 18.024ZM242.338 3.864V15.024C242.338 15.52 242.354 15.912 242.386 16.2C242.418 16.488 242.506 16.696 242.65 16.824C242.794 16.952 243.026 17.048 243.346 17.112C243.666 17.16 244.122 17.208 244.714 17.256C244.762 17.512 244.762 17.768 244.714 18.024C244.394 18.024 244.002 18.016 243.538 18C243.074 18 242.61 18 242.146 18C241.698 17.984 241.322 17.976 241.018 17.976C240.714 17.976 240.33 17.984 239.866 18C239.418 18 238.962 18 238.498 18C238.05 18.016 237.65 18.024 237.298 18.024C237.25 17.784 237.25 17.528 237.298 17.256C238.066 17.176 238.618 17.104 238.954 17.04C239.29 16.96 239.498 16.8 239.578 16.56C239.658 16.32 239.698 15.912 239.698 15.336V4.176C239.698 3.504 239.658 3.024 239.578 2.736C239.498 2.448 239.29 2.264 238.954 2.184C238.618 2.088 238.066 2.008 237.298 1.944C237.266 1.704 237.266 1.448 237.298 1.176C237.634 1.176 238.034 1.184 238.498 1.2C238.978 1.2 239.45 1.208 239.914 1.224C240.378 1.224 240.762 1.224 241.066 1.224C241.37 1.224 241.746 1.224 242.194 1.224C242.642 1.208 243.098 1.2 243.562 1.2C244.026 1.184 244.41 1.176 244.714 1.176C244.762 1.416 244.762 1.672 244.714 1.944C243.962 2.008 243.418 2.08 243.082 2.16C242.746 2.24 242.538 2.4 242.458 2.64C242.378 2.88 242.338 3.288 242.338 3.864ZM246.253 18.024C246.221 17.784 246.221 17.528 246.253 17.256C247.005 17.176 247.541 17.104 247.861 17.04C248.181 16.96 248.381 16.8 248.461 16.56C248.541 16.304 248.581 15.896 248.581 15.336V4.176C248.581 3.504 248.541 3.024 248.461 2.736C248.381 2.448 248.173 2.264 247.837 2.184C247.517 2.088 246.989 2.008 246.253 1.944C246.221 1.704 246.221 1.448 246.253 1.176C246.589 1.176 246.981 1.184 247.429 1.2C247.893 1.2 248.349 1.208 248.797 1.224C249.245 1.224 249.613 1.224 249.901 1.224C250.205 1.224 250.581 1.224 251.029 1.224C251.493 1.208 251.957 1.2 252.421 1.2C252.901 1.184 253.293 1.176 253.597 1.176C253.645 1.416 253.645 1.672 253.597 1.944C252.845 2.008 252.301 2.08 251.965 2.16C251.629 2.24 251.421 2.4 251.341 2.64C251.261 2.88 251.221 3.288 251.221 3.864V15.024C251.221 15.568 251.221 16.008 251.221 16.344C251.237 16.664 251.253 16.88 251.269 16.992H254.677C256.005 16.992 256.989 16.696 257.629 16.104C258.157 15.592 258.709 14.696 259.285 13.416C259.541 13.368 259.789 13.368 260.029 13.416C259.837 14.392 259.677 15.272 259.549 16.056C259.437 16.824 259.341 17.472 259.261 18C257.709 18 256.157 18 254.605 18C253.069 17.984 251.525 17.976 249.973 17.976C249.669 17.976 249.285 17.984 248.821 18C248.357 18 247.893 18 247.429 18C246.965 18.016 246.573 18.024 246.253 18.024ZM260.995 18.024C260.963 17.784 260.963 17.528 260.995 17.256C261.747 17.176 262.283 17.104 262.603 17.04C262.923 16.96 263.123 16.8 263.203 16.56C263.283 16.304 263.323 15.896 263.323 15.336V4.176C263.323 3.504 263.283 3.024 263.203 2.736C263.123 2.448 262.915 2.264 262.579 2.184C262.259 2.088 261.731 2.008 260.995 1.944C260.963 1.704 260.963 1.448 260.995 1.176C261.331 1.176 261.723 1.184 262.171 1.2C262.635 1.2 263.091 1.208 263.539 1.224C263.987 1.224 264.355 1.224 264.643 1.224C264.947 1.224 265.323 1.224 265.771 1.224C266.235 1.208 266.699 1.2 267.163 1.2C267.643 1.184 268.035 1.176 268.339 1.176C268.387 1.416 268.387 1.672 268.339 1.944C267.587 2.008 267.043 2.08 266.707 2.16C266.371 2.24 266.163 2.4 266.083 2.64C266.003 2.88 265.963 3.288 265.963 3.864V15.024C265.963 15.568 265.963 16.008 265.963 16.344C265.979 16.664 265.995 16.88 266.011 16.992H269.419C270.747 16.992 271.731 16.696 272.371 16.104C272.899 15.592 273.451 14.696 274.027 13.416C274.283 13.368 274.531 13.368 274.771 13.416C274.579 14.392 274.419 15.272 274.291 16.056C274.179 16.824 274.083 17.472 274.003 18C272.451 18 270.899 18 269.347 18C267.811 17.984 266.267 17.976 264.715 17.976C264.411 17.976 264.027 17.984 263.563 18C263.099 18 262.635 18 262.171 18C261.707 18.016 261.315 18.024 260.995 18.024ZM275.737 18.024C275.705 17.784 275.705 17.528 275.737 17.256C276.489 17.176 277.025 17.104 277.345 17.04C277.665 16.96 277.865 16.8 277.945 16.56C278.025 16.304 278.065 15.896 278.065 15.336V4.176C278.065 3.504 278.025 3.024 277.945 2.736C277.865 2.448 277.657 2.264 277.321 2.184C277.001 2.088 276.473 2.008 275.737 1.944C275.705 1.704 275.705 1.448 275.737 1.176C276.153 1.176 276.513 1.184 276.817 1.2C277.137 1.2 277.457 1.2 277.777 1.2C278.097 1.2 278.481 1.208 278.929 1.224C279.377 1.224 279.945 1.224 280.633 1.224C281.897 1.224 283.081 1.224 284.185 1.224C285.289 1.208 286.209 1.2 286.945 1.2C287.681 1.184 288.113 1.176 288.241 1.176C288.305 1.768 288.377 2.376 288.457 3C288.553 3.624 288.657 4.288 288.769 4.992C288.497 5.024 288.233 5.024 287.977 4.992C287.785 4.512 287.561 4.088 287.305 3.72C287.049 3.352 286.785 3.072 286.513 2.88C286.209 2.656 285.841 2.488 285.409 2.376C284.993 2.264 284.473 2.208 283.849 2.208H280.705V8.76H282.025C282.793 8.76 283.377 8.712 283.777 8.616C284.177 8.504 284.473 8.272 284.665 7.92C284.857 7.552 285.009 6.976 285.121 6.192C285.409 6.144 285.681 6.144 285.937 6.192C285.921 7.152 285.905 7.856 285.889 8.304C285.889 8.752 285.889 9.088 285.889 9.312C285.889 9.568 285.889 9.96 285.889 10.488C285.905 11 285.921 11.664 285.937 12.48C285.697 12.528 285.425 12.528 285.121 12.48C285.025 11.632 284.881 11.024 284.689 10.656C284.497 10.288 284.209 10.056 283.825 9.96C283.457 9.864 282.929 9.816 282.241 9.816H280.705V15.024C280.705 15.568 280.705 16.008 280.705 16.344C280.721 16.664 280.737 16.872 280.753 16.968H284.041C284.841 16.968 285.481 16.904 285.961 16.776C286.457 16.632 286.865 16.424 287.185 16.152C287.409 15.976 287.673 15.672 287.977 15.24C288.281 14.792 288.569 14.28 288.841 13.704C289.097 13.672 289.345 13.672 289.585 13.704C289.425 14.6 289.289 15.408 289.177 16.128C289.065 16.848 288.969 17.472 288.889 18C288.169 18 287.385 18 286.537 18C285.689 18 284.841 18 283.993 18C283.145 17.984 282.369 17.976 281.665 17.976C280.977 17.976 280.425 17.976 280.009 17.976C279.257 17.976 278.641 17.984 278.161 18C277.697 18 277.281 18 276.913 18C276.561 18.016 276.169 18.024 275.737 18.024ZM296.441 18.336C296.425 18.336 296.161 18.32 295.649 18.288C295.153 18.272 294.577 18.208 293.921 18.096C293.377 18 292.881 17.936 292.433 17.904C292.001 17.856 291.737 17.832 291.641 17.832C291.625 16.504 291.553 14.896 291.425 13.008C291.553 12.992 291.681 12.984 291.809 12.984C291.953 12.984 292.081 12.984 292.193 12.984C292.497 14.392 293.001 15.48 293.705 16.248C294.425 17.016 295.369 17.4 296.537 17.4C297.577 17.4 298.425 17.12 299.081 16.56C299.737 15.984 300.065 15.232 300.065 14.304C300.065 13.6 299.881 13.024 299.513 12.576C299.161 12.128 298.689 11.752 298.097 11.448C297.521 11.128 296.905 10.832 296.249 10.56C295.481 10.224 294.745 9.872 294.041 9.504C293.353 9.12 292.785 8.632 292.337 8.04C291.889 7.448 291.665 6.68 291.665 5.736C291.665 4.728 291.913 3.864 292.409 3.144C292.921 2.424 293.601 1.88 294.449 1.512C295.297 1.128 296.233 0.935999 297.257 0.935999C297.577 0.935999 297.905 0.951999 298.241 0.983999C298.593 1.016 298.953 1.064 299.321 1.128C299.785 1.192 300.137 1.232 300.377 1.248C300.633 1.264 300.801 1.272 300.881 1.272C300.929 1.272 301.017 1.272 301.145 1.272C301.273 1.256 301.377 1.24 301.457 1.224C301.489 1.928 301.521 2.656 301.553 3.408C301.585 4.16 301.633 4.944 301.697 5.76C301.377 5.808 301.113 5.824 300.905 5.808C300.537 4.416 300.081 3.416 299.537 2.808C298.993 2.184 298.217 1.872 297.209 1.872C296.329 1.872 295.577 2.112 294.953 2.592C294.329 3.056 294.017 3.752 294.017 4.68C294.017 5.176 294.129 5.616 294.353 6C294.593 6.384 294.985 6.752 295.529 7.104C296.073 7.456 296.825 7.832 297.785 8.232C298.313 8.456 298.841 8.704 299.369 8.976C299.913 9.248 300.409 9.576 300.857 9.96C301.305 10.328 301.665 10.784 301.937 11.328C302.209 11.856 302.345 12.488 302.345 13.224C302.345 14.312 302.073 15.24 301.529 16.008C300.985 16.76 300.265 17.336 299.369 17.736C298.489 18.136 297.513 18.336 296.441 18.336Z" fill="white"/>
</svg>
