<svg width="96" height="20" viewBox="0 0 96 20" fill="none" xmlns="http://www.w3.org/2000/svg">
<path d="M8.26 18.84C6.95333 18.84 5.75333 18.6467 4.66 18.26C3.58 17.8733 2.70667 17.3067 2.04 16.56C1.37333 15.8 1.00667 14.8667 0.94 13.76C0.913333 13.3067 0.986667 12.8067 1.16 12.26C1.33333 11.7133 1.57333 11.1733 1.88 10.64C2.2 10.0933 2.57333 9.60667 3 9.18C3.44 8.74 3.90667 8.40667 4.4 8.18C4.44 8.15333 4.5 8.13333 4.58 8.12C4.67333 8.10667 4.74 8.1 4.78 8.1C4.86 8.1 4.9 8.12 4.9 8.16C4.9 8.22667 4.8 8.33333 4.6 8.48C4.04 8.92 3.58 9.42667 3.22 10C2.84667 10.5733 2.56667 11.1867 2.38 11.84C2.19333 12.4933 2.1 13.1533 2.1 13.82C2.1 14.6067 2.26667 15.2867 2.6 15.86C2.94667 16.42 3.40667 16.88 3.98 17.24C4.55333 17.6133 5.20667 17.8867 5.94 18.06C6.67333 18.2333 7.44 18.32 8.24 18.32C9.13333 18.32 10.0133 18.22 10.88 18.02C11.76 17.82 12.56 17.5333 13.28 17.16C14.3867 16.5733 15.26 15.8467 15.9 14.98C16.5533 14.1133 16.88 13.2533 16.88 12.4C16.88 11.9467 16.78 11.5133 16.58 11.1C16.3933 10.6867 16.0867 10.3133 15.66 9.98C15.34 9.72667 14.9467 9.48667 14.48 9.26C14.0267 9.03333 13.54 8.81333 13.02 8.6C12.5133 8.38667 12.0133 8.17333 11.52 7.96C11.0267 7.73333 10.5933 7.49333 10.22 7.24C9.68667 6.88 9.29333 6.49333 9.04 6.08C8.8 5.66667 8.68 5.25333 8.68 4.84C8.68 4.34667 8.82 3.86667 9.1 3.4C9.39333 2.93333 9.78667 2.51333 10.28 2.14C10.7867 1.75333 11.3533 1.45333 11.98 1.24C12.5267 1.05333 13.12 0.906666 13.76 0.799999C14.4133 0.693333 15.0533 0.64 15.68 0.64C16.2 0.64 16.6933 0.68 17.16 0.759999C17.64 0.826666 18.06 0.953333 18.42 1.14C18.8733 1.35333 19.22 1.64 19.46 2C19.7 2.34667 19.82 2.71333 19.82 3.1C19.82 3.63333 19.58 4.1 19.1 4.5C18.9267 4.63333 18.7333 4.76 18.52 4.88C18.3067 4.98667 18.0533 5.08 17.76 5.16C17.7067 5.17333 17.6467 5.18 17.58 5.18C17.42 5.18 17.34 5.13333 17.34 5.04C17.34 4.98667 17.38 4.93333 17.46 4.88C17.5533 4.81333 17.6867 4.77333 17.86 4.76C18.26 4.70667 18.56 4.55333 18.76 4.3C18.9733 4.04667 19.08 3.75333 19.08 3.42C19.08 3.07333 18.96 2.73333 18.72 2.4C18.4933 2.05333 18.14 1.76667 17.66 1.54C17.18 1.3 16.5667 1.18 15.82 1.18C15.3933 1.18 14.92 1.22667 14.4 1.32C13.8933 1.41333 13.34 1.56667 12.74 1.78C12.0067 2.03333 11.3933 2.40667 10.9 2.9C10.42 3.39333 10.18 3.92 10.18 4.48C10.18 4.82667 10.2933 5.18 10.52 5.54C10.76 5.88667 11.14 6.22 11.66 6.54C12.1 6.80667 12.6 7.07333 13.16 7.34C13.72 7.59333 14.2867 7.85333 14.86 8.12C15.4333 8.37333 15.9533 8.64667 16.42 8.94C17.1533 9.39333 17.68 9.88 18 10.4C18.32 10.92 18.48 11.4533 18.48 12C18.48 12.64 18.2867 13.2867 17.9 13.94C17.5267 14.58 17.0333 15.1867 16.42 15.76C15.8067 16.32 15.1333 16.82 14.4 17.26C13.5467 17.7667 12.58 18.1533 11.5 18.42C10.4333 18.7 9.35333 18.84 8.26 18.84ZM24.685 17.04C24.605 17.04 24.5317 17.0333 24.465 17.02C24.4117 17.02 24.3383 17.0133 24.245 17C23.9117 16.9333 23.6783 16.7533 23.545 16.46C23.425 16.1533 23.365 15.8267 23.365 15.48C23.365 15.2667 23.3783 15.06 23.405 14.86C23.445 14.6467 23.4917 14.46 23.545 14.3C23.425 14.5133 23.2717 14.7733 23.085 15.08C22.8983 15.3733 22.685 15.6667 22.445 15.96C22.205 16.2533 21.9517 16.5 21.685 16.7C21.4183 16.9 21.145 17 20.865 17C20.585 17 20.325 16.92 20.085 16.76C19.845 16.6 19.6917 16.3733 19.625 16.08C19.6117 16.0133 19.5983 15.9533 19.585 15.9C19.585 15.8333 19.585 15.7733 19.585 15.72C19.585 15.3733 19.665 15.04 19.825 14.72C19.9983 14.3867 20.1583 14.0667 20.305 13.76C20.265 13.76 20.2183 13.7467 20.165 13.72C20.125 13.6933 20.105 13.6533 20.105 13.6C20.105 13.5467 20.1183 13.4933 20.145 13.44C20.185 13.3733 20.205 13.3333 20.205 13.32C20.2183 13.2933 20.2383 13.2467 20.265 13.18C20.305 13.1 20.3783 12.9533 20.485 12.74C20.605 12.4867 20.7517 12.1867 20.925 11.84C21.1117 11.4933 21.2717 11.1867 21.405 10.92C21.5517 10.6533 21.625 10.52 21.625 10.52C21.7717 10.2267 22.025 10.08 22.385 10.08H23.625C23.3983 10.2533 23.1917 10.4467 23.005 10.66C22.8317 10.86 22.6117 11.2333 22.345 11.78C22.345 11.78 22.2983 11.8733 22.205 12.06C22.1117 12.2467 21.9917 12.48 21.845 12.76C21.7117 13.04 21.5717 13.3267 21.425 13.62C21.2917 13.9133 21.1783 14.1667 21.085 14.38C20.9517 14.6733 20.8517 14.9467 20.785 15.2C20.7183 15.4533 20.685 15.6733 20.685 15.86C20.685 16.3267 20.8383 16.56 21.145 16.56C21.3583 16.56 21.5983 16.4267 21.865 16.16C22.1717 15.8667 22.485 15.46 22.805 14.94C23.1383 14.4067 23.4583 13.8467 23.765 13.26C24.0717 12.6733 24.345 12.1333 24.585 11.64C24.825 11.1333 25.005 10.76 25.125 10.52C25.1917 10.3733 25.2783 10.2667 25.385 10.2C25.505 10.12 25.6717 10.08 25.885 10.08H27.105C27.025 10.16 26.905 10.2467 26.745 10.34C26.5983 10.4333 26.4517 10.6 26.305 10.84C26.1183 11.16 25.9517 11.46 25.805 11.74C25.6583 12.0067 25.4583 12.4133 25.205 12.96C25.1517 13.08 25.045 13.3133 24.885 13.66C24.7383 14.0067 24.5983 14.3867 24.465 14.8C24.3317 15.2133 24.265 15.5867 24.265 15.92C24.265 16.1333 24.3117 16.3067 24.405 16.44C24.4983 16.5733 24.6517 16.64 24.865 16.64C25.2383 16.64 25.5917 16.48 25.925 16.16C26.2717 15.84 26.5983 15.4133 26.905 14.88C27.2117 14.3467 27.485 13.7667 27.725 13.14C27.565 12.74 27.485 12.3067 27.485 11.84C27.485 11.56 27.5117 11.32 27.565 11.12C27.725 10.6 27.9383 10.2267 28.205 10C28.4717 9.77333 28.705 9.66 28.905 9.66C29.1317 9.66 29.245 9.77333 29.245 10C29.245 10.0533 29.225 10.1333 29.185 10.24C29.1583 10.24 29.145 10.2667 29.145 10.32C29.065 10.5867 28.945 10.9867 28.785 11.52C28.625 12.0533 28.4183 12.6333 28.165 13.26C27.9117 13.8867 27.6117 14.4867 27.265 15.06C26.9317 15.6333 26.5517 16.1067 26.125 16.48C25.6983 16.8533 25.2183 17.04 24.685 17.04ZM32.0358 8.88C31.8358 8.88 31.6691 8.81333 31.5358 8.68C31.4158 8.53333 31.3558 8.36 31.3558 8.16C31.3558 7.90667 31.4558 7.68667 31.6558 7.5C31.8558 7.31333 32.0758 7.22 32.3158 7.22C32.5291 7.22 32.7024 7.28667 32.8358 7.42C32.9691 7.55333 33.0358 7.71333 33.0358 7.9C33.0358 8.15333 32.9358 8.38 32.7358 8.58C32.5358 8.78 32.3024 8.88 32.0358 8.88ZM30.4158 17C29.9224 17 29.5758 16.86 29.3758 16.58C29.1758 16.2867 29.0758 15.9533 29.0758 15.58C29.0758 15.38 29.0958 15.18 29.1358 14.98C29.1891 14.7667 29.2491 14.5733 29.3158 14.4L30.6558 10.98C30.6958 10.8733 30.7158 10.78 30.7158 10.7C30.7158 10.5667 30.6824 10.4533 30.6158 10.36C30.5491 10.2533 30.5024 10.18 30.4758 10.14L31.5758 10.1C31.7758 10.0867 31.9158 10.1133 31.9958 10.18C32.0891 10.2333 32.1358 10.3 32.1358 10.38C32.1358 10.46 32.0891 10.6067 31.9958 10.82L30.3358 14.72C30.3358 14.72 30.2958 14.8067 30.2158 14.98C30.1491 15.14 30.1091 15.2467 30.0958 15.3C30.0558 15.5 30.0291 15.6267 30.0158 15.68C30.0024 15.7333 29.9958 15.7667 29.9958 15.78C29.9958 15.7933 29.9958 15.8467 29.9958 15.94C29.9958 16.1133 30.0358 16.26 30.1158 16.38C30.2091 16.5 30.3624 16.56 30.5758 16.56C30.7091 16.56 30.8624 16.52 31.0358 16.44C31.2091 16.36 31.3358 16.28 31.4158 16.2C31.7491 15.8533 32.0758 15.4 32.3958 14.84C32.7291 14.2667 33.0358 13.7 33.3158 13.14C33.3691 13.0067 33.4358 12.94 33.5158 12.94C33.5824 12.94 33.6158 12.9867 33.6158 13.08C33.6158 13.1333 33.5958 13.2133 33.5558 13.32C33.4224 13.6 33.2558 13.9467 33.0558 14.36C32.8558 14.7733 32.6158 15.1867 32.3358 15.6C32.0691 16 31.7758 16.3333 31.4558 16.6C31.1358 16.8667 30.7891 17 30.4158 17ZM33.7714 17.08C33.1181 17.08 32.6514 16.9133 32.3714 16.58C32.1047 16.2333 31.9714 15.8733 31.9714 15.5C31.9714 15.1933 32.0447 14.9133 32.1914 14.66C32.3514 14.4067 32.5381 14.2733 32.7514 14.26C33.0181 13.74 33.3047 13.1733 33.6114 12.56C33.9314 11.9467 34.2247 11.3533 34.4914 10.78C34.6781 10.3933 34.9114 10.02 35.1914 9.66C35.4847 9.3 35.8047 9.09333 36.1514 9.04H36.3514C36.4581 9.04 36.5514 9.04667 36.6314 9.06C36.7247 9.07333 36.8181 9.1 36.9114 9.14C37.0581 9.20667 37.1314 9.30667 37.1314 9.44C37.1314 9.52 37.0847 9.56 36.9914 9.56C36.9514 9.56 36.8981 9.54 36.8314 9.5C36.6714 9.43333 36.5314 9.4 36.4114 9.4C36.3314 9.4 36.2581 9.42 36.1914 9.46C35.9381 9.59333 35.7581 9.78 35.6514 10.02C35.5581 10.26 35.5114 10.5133 35.5114 10.78C35.5114 10.9933 35.5314 11.2133 35.5714 11.44C35.6247 11.6533 35.6847 11.8467 35.7514 12.02C35.8981 12.3933 36.0514 12.76 36.2114 13.12C36.3847 13.48 36.4714 13.8667 36.4714 14.28C36.4714 14.68 36.3381 15.1067 36.0714 15.56C35.8047 16 35.4647 16.3533 35.0514 16.62L35.1914 16.64C35.2581 16.6533 35.3047 16.66 35.3314 16.66C35.3581 16.66 35.3781 16.66 35.3914 16.66C35.6981 16.66 35.9847 16.5733 36.2514 16.4C36.5314 16.2133 36.7781 15.9867 36.9914 15.72C37.2047 15.4533 37.4447 15.08 37.7114 14.6C37.9914 14.12 38.2581 13.6133 38.5114 13.08C38.5514 13.0133 38.5981 12.98 38.6514 12.98C38.7181 12.98 38.7647 13.0067 38.7914 13.06C38.8314 13.1 38.8381 13.1533 38.8114 13.22C38.6381 13.5933 38.4381 14 38.2114 14.44C37.9981 14.8667 37.7514 15.28 37.4714 15.68C37.1914 16.0667 36.8647 16.3867 36.4914 16.64C36.1314 16.88 35.7247 17 35.2714 17C35.1647 17 35.0514 16.9933 34.9314 16.98C34.8114 16.9667 34.6914 16.94 34.5714 16.9C34.4381 16.9533 34.2981 16.9933 34.1514 17.02C34.0181 17.06 33.8914 17.08 33.7714 17.08ZM34.3714 16.48C34.5981 16.2933 34.7981 16.02 34.9714 15.66C35.1581 15.3 35.2514 14.8267 35.2514 14.24C35.2514 13.72 35.1981 13.1667 35.0914 12.58C34.9847 11.9933 34.9314 11.4733 34.9314 11.02C34.9314 10.9267 34.9314 10.8467 34.9314 10.78C34.9447 10.7 34.9581 10.6267 34.9714 10.56C34.7981 10.92 34.5981 11.34 34.3714 11.82C34.1447 12.2867 33.9181 12.74 33.6914 13.18C33.4647 13.62 33.2714 13.9933 33.1114 14.3C33.1114 14.3 33.1447 14.3067 33.2114 14.32C33.2914 14.32 33.3647 14.3667 33.4314 14.46C33.4981 14.54 33.5247 14.7067 33.5114 14.96C33.4981 15.2933 33.5714 15.6067 33.7314 15.9C33.9047 16.18 34.1181 16.3733 34.3714 16.48ZM33.6114 16.76C33.6914 16.76 33.7647 16.7533 33.8314 16.74C33.8981 16.7133 33.9581 16.6933 34.0114 16.68C33.8114 16.5333 33.6314 16.34 33.4714 16.1C33.3247 15.8467 33.2381 15.5267 33.2114 15.14C32.9714 15.3933 32.8514 15.6667 32.8514 15.96C32.8514 16.1733 32.9181 16.36 33.0514 16.52C33.1847 16.68 33.3714 16.76 33.6114 16.76ZM38.9081 17.08C38.2548 17.08 37.7881 16.9133 37.5081 16.58C37.2415 16.2333 37.1081 15.8733 37.1081 15.5C37.1081 15.1933 37.1815 14.9133 37.3281 14.66C37.4881 14.4067 37.6748 14.2733 37.8881 14.26C38.1548 13.74 38.4415 13.1733 38.7481 12.56C39.0681 11.9467 39.3615 11.3533 39.6281 10.78C39.8148 10.3933 40.0481 10.02 40.3281 9.66C40.6215 9.3 40.9415 9.09333 41.2881 9.04H41.4881C41.5948 9.04 41.6881 9.04667 41.7681 9.06C41.8615 9.07333 41.9548 9.1 42.0481 9.14C42.1948 9.20667 42.2681 9.30667 42.2681 9.44C42.2681 9.52 42.2215 9.56 42.1281 9.56C42.0881 9.56 42.0348 9.54 41.9681 9.5C41.8081 9.43333 41.6681 9.4 41.5481 9.4C41.4681 9.4 41.3948 9.42 41.3281 9.46C41.0748 9.59333 40.8948 9.78 40.7881 10.02C40.6948 10.26 40.6481 10.5133 40.6481 10.78C40.6481 10.9933 40.6681 11.2133 40.7081 11.44C40.7615 11.6533 40.8215 11.8467 40.8881 12.02C41.0348 12.3933 41.1881 12.76 41.3481 13.12C41.5215 13.48 41.6081 13.8667 41.6081 14.28C41.6081 14.68 41.4748 15.1067 41.2081 15.56C40.9415 16 40.6015 16.3533 40.1881 16.62L40.3281 16.64C40.3948 16.6533 40.4415 16.66 40.4681 16.66C40.4948 16.66 40.5148 16.66 40.5281 16.66C40.8348 16.66 41.1215 16.5733 41.3881 16.4C41.6681 16.2133 41.9148 15.9867 42.1281 15.72C42.3415 15.4533 42.5815 15.08 42.8481 14.6C43.1281 14.12 43.3948 13.6133 43.6481 13.08C43.6881 13.0133 43.7348 12.98 43.7881 12.98C43.8548 12.98 43.9015 13.0067 43.9281 13.06C43.9681 13.1 43.9748 13.1533 43.9481 13.22C43.7748 13.5933 43.5748 14 43.3481 14.44C43.1348 14.8667 42.8881 15.28 42.6081 15.68C42.3281 16.0667 42.0015 16.3867 41.6281 16.64C41.2681 16.88 40.8615 17 40.4081 17C40.3015 17 40.1881 16.9933 40.0681 16.98C39.9481 16.9667 39.8281 16.94 39.7081 16.9C39.5748 16.9533 39.4348 16.9933 39.2881 17.02C39.1548 17.06 39.0281 17.08 38.9081 17.08ZM39.5081 16.48C39.7348 16.2933 39.9348 16.02 40.1081 15.66C40.2948 15.3 40.3881 14.8267 40.3881 14.24C40.3881 13.72 40.3348 13.1667 40.2281 12.58C40.1215 11.9933 40.0681 11.4733 40.0681 11.02C40.0681 10.9267 40.0681 10.8467 40.0681 10.78C40.0815 10.7 40.0948 10.6267 40.1081 10.56C39.9348 10.92 39.7348 11.34 39.5081 11.82C39.2815 12.2867 39.0548 12.74 38.8281 13.18C38.6015 13.62 38.4081 13.9933 38.2481 14.3C38.2481 14.3 38.2815 14.3067 38.3481 14.32C38.4281 14.32 38.5015 14.3667 38.5681 14.46C38.6348 14.54 38.6615 14.7067 38.6481 14.96C38.6348 15.2933 38.7081 15.6067 38.8681 15.9C39.0415 16.18 39.2548 16.3733 39.5081 16.48ZM38.7481 16.76C38.8281 16.76 38.9015 16.7533 38.9681 16.74C39.0348 16.7133 39.0948 16.6933 39.1481 16.68C38.9481 16.5333 38.7681 16.34 38.6081 16.1C38.4615 15.8467 38.3748 15.5267 38.3481 15.14C38.1081 15.3933 37.9881 15.6667 37.9881 15.96C37.9881 16.1733 38.0548 16.36 38.1881 16.52C38.3215 16.68 38.5081 16.76 38.7481 16.76ZM74.9602 19.3C74.7602 19.2733 74.4868 19.22 74.1402 19.14C73.7935 19.0733 73.4402 18.9333 73.0802 18.72C72.7202 18.5067 72.4135 18.18 72.1602 17.74C71.9068 17.3133 71.7802 16.74 71.7802 16.02C71.7802 15.1933 71.9468 14.2867 72.2802 13.3C72.6268 12.3 73.0468 11.26 73.5402 10.18C74.0335 9.1 74.5068 8.03333 74.9602 6.98C75.3202 6.14 75.5002 5.5 75.5002 5.06C75.5002 4.62 75.3335 4.4 75.0002 4.4C74.6268 4.4 74.0668 4.7 73.3202 5.3C72.5868 5.88667 71.7335 6.78 70.7602 7.98C70.5068 8.3 70.1802 8.74667 69.7802 9.32C69.3802 9.88 68.9535 10.5067 68.5002 11.2C68.0468 11.88 67.6002 12.5733 67.1602 13.28C66.7335 13.9733 66.3535 14.6133 66.0202 15.2C65.7002 15.7867 65.4668 16.2533 65.3202 16.6C65.1468 17.0133 64.9468 17.2933 64.7202 17.44C64.4935 17.6 64.2802 17.68 64.0802 17.68C63.9068 17.68 63.7535 17.6333 63.6202 17.54C63.5002 17.4467 63.4402 17.3333 63.4402 17.2C63.4402 17.12 63.4602 17.0533 63.5002 17C63.5802 16.84 63.7935 16.4533 64.1402 15.84C64.4868 15.2267 64.8802 14.4133 65.3202 13.4C65.7602 12.3733 66.1802 11.1867 66.5802 9.84C66.9935 8.48 67.3002 6.98 67.5002 5.34C67.5268 5.15333 67.5402 4.95333 67.5402 4.74C67.5402 4.27333 67.4602 3.93333 67.3002 3.72C67.1402 3.49333 66.9268 3.38 66.6602 3.38C66.3668 3.38 66.0335 3.50667 65.6602 3.76C65.2868 4.01333 64.9068 4.38 64.5202 4.86C63.8535 5.7 63.2668 6.48 62.7602 7.2C62.2535 7.90667 61.7868 8.61333 61.3602 9.32C60.9468 10.0267 60.5335 10.78 60.1202 11.58C59.7202 12.38 59.2935 13.28 58.8402 14.28C58.3868 15.2667 57.8668 16.4133 57.2802 17.72C57.1868 17.9333 57.0268 18.0867 56.8002 18.18C56.5868 18.2733 56.3868 18.32 56.2002 18.32C56.0135 18.32 55.8602 18.28 55.7402 18.2C55.6202 18.12 55.5802 18.0067 55.6202 17.86C55.9668 17.3267 56.3402 16.6533 56.7402 15.84C57.1402 15.0267 57.5402 14.14 57.9402 13.18C58.3535 12.2067 58.7335 11.2267 59.0802 10.24C59.4402 9.24 59.7468 8.3 60.0002 7.42C60.2535 6.52667 60.4268 5.75333 60.5202 5.1C60.5468 4.88667 60.5668 4.68667 60.5802 4.5C60.5935 4.31333 60.6002 4.13333 60.6002 3.96C60.6002 2.93333 60.3802 2.2 59.9402 1.76C59.5135 1.32 58.9602 1.1 58.2802 1.1C57.7068 1.1 57.0802 1.23333 56.4002 1.5C55.7335 1.75333 55.0535 2.10667 54.3602 2.56C53.6802 3.01333 53.0268 3.54 52.4002 4.14C51.7735 4.72667 51.2202 5.36 50.7402 6.04C50.2602 6.70667 49.8935 7.38667 49.6402 8.08C49.4668 8.57333 49.3335 9.04667 49.2402 9.5C49.1602 9.94 49.1202 10.3533 49.1202 10.74C49.1202 11.4867 49.2535 12.12 49.5202 12.64C49.8002 13.16 50.1668 13.5533 50.6202 13.82C51.0868 14.0867 51.5868 14.22 52.1202 14.22C52.3068 14.22 52.5135 14.2 52.7402 14.16C52.9802 14.1067 53.1802 14.0533 53.3402 14C53.7268 13.8533 54.1002 13.6267 54.4602 13.32C54.8202 13 55.1402 12.6333 55.4202 12.22C55.7002 11.8067 55.9202 11.3867 56.0802 10.96C56.2402 10.5333 56.3202 10.1333 56.3202 9.76C56.3202 9.37333 56.2135 9.05333 56.0002 8.8C55.7868 8.54667 55.4468 8.42 54.9802 8.42C54.9268 8.42 54.8668 8.42667 54.8002 8.44C54.7468 8.44 54.6868 8.44 54.6202 8.44H54.5602C54.4668 8.44 54.3802 8.42667 54.3002 8.4C54.2202 8.36 54.1802 8.31333 54.1802 8.26C54.1802 8.20667 54.2468 8.14667 54.3802 8.08C54.5268 8.01333 54.7868 7.98 55.1602 7.98C55.7602 7.98 56.2068 8.16 56.5002 8.52C56.8068 8.86667 56.9602 9.31333 56.9602 9.86C56.9602 10.3533 56.8268 10.8867 56.5602 11.46C56.2935 12.0333 55.8935 12.58 55.3602 13.1C54.8268 13.62 54.1535 14.0467 53.3402 14.38C52.8602 14.5667 52.3935 14.66 51.9402 14.66C51.2735 14.66 50.6402 14.4933 50.0402 14.16C49.4402 13.8133 48.9535 13.3267 48.5802 12.7C48.2068 12.06 48.0202 11.3067 48.0202 10.44C48.0202 10.0533 48.0602 9.64667 48.1402 9.22C48.2335 8.78 48.3802 8.32667 48.5802 7.86C49.0202 6.83333 49.6135 5.88667 50.3602 5.02C51.1202 4.14 51.9602 3.38 52.8802 2.74C53.8002 2.08667 54.7335 1.58 55.6802 1.22C56.6268 0.859999 57.5068 0.679999 58.3202 0.679999C59.3068 0.679999 60.1202 0.973333 60.7602 1.56C61.4135 2.14667 61.7402 3.09333 61.7402 4.4C61.7402 4.49333 61.7335 4.62 61.7202 4.78C61.7202 4.92667 61.7135 5.04 61.7002 5.12C61.6202 5.8 61.4802 6.48 61.2802 7.16C61.0935 7.84 60.8868 8.49333 60.6602 9.12C60.6202 9.22667 60.5868 9.34 60.5602 9.46C60.5468 9.56667 60.5402 9.64 60.5402 9.68C60.5402 9.74667 60.5535 9.78 60.5802 9.78C60.6335 9.78 60.7402 9.64 60.9002 9.36C61.2068 8.8 61.4802 8.31333 61.7202 7.9C61.9735 7.47333 62.2202 7.08667 62.4602 6.74C62.7002 6.39333 62.9602 6.04 63.2402 5.68C63.5202 5.32 63.8402 4.92 64.2002 4.48C64.6135 3.98667 65.0868 3.59333 65.6202 3.3C66.1535 3.00667 66.6668 2.86 67.1602 2.86C67.6002 2.86 67.9735 3.00667 68.2802 3.3C68.5868 3.59333 68.7402 4.09333 68.7402 4.8C68.7402 4.88 68.7402 4.94667 68.7402 5C68.7402 5.05333 68.7335 5.13333 68.7202 5.24C68.6002 6.52 68.3468 7.78 67.9602 9.02C67.5735 10.2467 67.1735 11.4867 66.7602 12.74C67.1735 12.1 67.7335 11.2867 68.4402 10.3C69.1468 9.31333 69.9202 8.29333 70.7602 7.24C71.7868 5.96 72.7402 5 73.6202 4.36C74.5002 3.72 75.2268 3.4 75.8002 3.4C76.5202 3.4 76.8802 3.84 76.8802 4.72C76.8802 5.05333 76.8135 5.45333 76.6802 5.92C76.5602 6.38667 76.3668 6.88 76.1002 7.4C75.8068 7.98667 75.4802 8.66667 75.1202 9.44C74.7735 10.2 74.4402 11 74.1202 11.84C73.8002 12.68 73.5335 13.5067 73.3202 14.32C73.1202 15.12 73.0202 15.86 73.0202 16.54C73.0202 17.2733 73.1868 17.8667 73.5202 18.32C73.8668 18.7867 74.4602 19.0067 75.3002 18.98H75.4202C75.6202 18.98 75.7202 19.02 75.7202 19.1C75.7202 19.1533 75.6535 19.2067 75.5202 19.26C75.3868 19.3133 75.2002 19.3267 74.9602 19.3ZM79.8189 17.06C79.6722 17.0733 79.5056 17.04 79.3189 16.96C79.1322 16.88 78.9656 16.7333 78.8189 16.52C78.6856 16.3067 78.6189 16.0067 78.6189 15.62C78.6189 15.3 78.6789 14.9133 78.7989 14.46C78.6389 14.7133 78.4322 15.0267 78.1789 15.4C77.9256 15.76 77.6522 16.08 77.3589 16.36C77.1056 16.6 76.8656 16.7733 76.6389 16.88C76.4122 16.9867 76.2056 17.04 76.0189 17.04C75.6722 17.04 75.3922 16.8867 75.1789 16.58C74.9656 16.26 74.8589 15.8467 74.8589 15.34C74.8589 14.8067 74.9922 14.2 75.2589 13.52C75.5256 12.84 75.9589 12.1333 76.5589 11.4C76.9456 10.9333 77.4122 10.56 77.9589 10.28C78.5189 9.98667 79.0656 9.84 79.5989 9.84C79.9056 9.84 80.1989 9.89333 80.4789 10C80.7589 10.0933 81.0056 10.2533 81.2189 10.48C81.3122 10.5733 81.3589 10.68 81.3589 10.8C81.3589 10.88 81.3256 10.9467 81.2589 11C81.1922 11.0533 81.1056 11.0667 80.9989 11.04C80.8522 10.5733 80.5389 10.34 80.0589 10.34C79.8322 10.34 79.5722 10.4133 79.2789 10.56C78.8256 10.8 78.3522 11.1933 77.8589 11.74C77.3789 12.2867 76.9589 12.8533 76.5989 13.44C76.5456 13.52 76.4589 13.6733 76.3389 13.9C76.2322 14.1267 76.1256 14.38 76.0189 14.66C75.9122 14.94 75.8389 15.2133 75.7989 15.48C75.7856 15.56 75.7789 15.62 75.7789 15.66C75.7789 15.6867 75.7789 15.7333 75.7789 15.8C75.7789 16.24 75.9456 16.46 76.2789 16.46C76.6789 16.46 77.1322 16.1667 77.6389 15.58C77.9856 15.1533 78.2989 14.7067 78.5789 14.24C78.8589 13.7733 79.1456 13.2733 79.4389 12.74C79.6389 12.38 79.8256 12.08 79.9989 11.84C80.1722 11.6 80.4189 11.48 80.7389 11.48C80.8856 11.48 81.0322 11.5 81.1789 11.54C81.3256 11.58 81.4789 11.5867 81.6389 11.56C81.5322 11.6667 81.3856 11.8667 81.1989 12.16C81.0256 12.4533 80.8389 12.7867 80.6389 13.16C80.4389 13.5333 80.2589 13.9133 80.0989 14.3C79.9389 14.6867 79.8256 15.02 79.7589 15.3C79.7456 15.38 79.7256 15.4933 79.6989 15.64C79.6856 15.7867 79.6789 15.8933 79.6789 15.96C79.6789 16.3333 79.7856 16.52 79.9989 16.52C80.2122 16.52 80.4389 16.3933 80.6789 16.14C80.9322 15.8867 81.1789 15.5733 81.4189 15.2C81.6589 14.8267 81.8789 14.4533 82.0789 14.08C82.2789 13.6933 82.4389 13.38 82.5589 13.14C82.6122 13.0067 82.6922 12.94 82.7989 12.94C82.8656 12.94 82.8989 12.9867 82.8989 13.08C82.8989 13.12 82.8789 13.1933 82.8389 13.3C82.6789 13.6333 82.4856 14.0133 82.2589 14.44C82.0322 14.8533 81.7856 15.26 81.5189 15.66C81.2522 16.0467 80.9722 16.3733 80.6789 16.64C80.3989 16.8933 80.1122 17.0333 79.8189 17.06ZM86.9502 17C86.5902 17 86.2902 16.82 86.0502 16.46C85.9835 16.3533 85.9235 16.2133 85.8702 16.04C85.8168 15.8667 85.7902 15.6733 85.7902 15.46C85.7902 15.34 85.7968 15.22 85.8102 15.1C85.8235 14.9667 85.8502 14.8333 85.8902 14.7C85.7035 14.9933 85.4835 15.32 85.2302 15.68C84.9902 16.0267 84.7102 16.3333 84.3902 16.6C84.0835 16.8533 83.7368 16.98 83.3502 16.98C83.2168 16.98 83.0768 16.96 82.9302 16.92C82.5702 16.8133 82.3102 16.6267 82.1502 16.36C82.0035 16.0933 81.9302 15.7733 81.9302 15.4C81.9302 14.9867 82.0102 14.5333 82.1702 14.04C82.3435 13.5467 82.5568 13.0667 82.8102 12.6C83.0768 12.1333 83.3502 11.7333 83.6302 11.4C84.0302 10.9333 84.4902 10.56 85.0102 10.28C85.5302 10 86.0568 9.86 86.5902 9.86C87.0702 9.86 87.5235 9.98667 87.9502 10.24C88.1502 9.86667 88.3635 9.45333 88.5902 9C88.8168 8.53333 89.0435 8.07333 89.2702 7.62C89.4968 7.16667 89.6968 6.75333 89.8702 6.38C90.0435 5.99333 90.1768 5.7 90.2702 5.5C90.4702 5.03333 90.6568 4.74 90.8302 4.62C91.0168 4.48667 91.2368 4.42 91.4902 4.42C91.6368 4.42 91.7968 4.44 91.9702 4.48C92.1568 4.50667 92.3368 4.51333 92.5102 4.5C92.4302 4.58 92.2635 4.81333 92.0102 5.2C91.7702 5.57333 91.4835 6.05333 91.1502 6.64C90.8168 7.22667 90.4568 7.87333 90.0702 8.58C89.6968 9.27333 89.3235 9.98 88.9502 10.7C88.5902 11.4067 88.2502 12.08 87.9302 12.72C87.6235 13.3467 87.3768 13.8867 87.1902 14.34C87.1368 14.4467 87.0568 14.6667 86.9502 15C86.8568 15.32 86.8102 15.6 86.8102 15.84C86.8102 16.0133 86.8502 16.1667 86.9302 16.3C87.0102 16.42 87.1435 16.48 87.3302 16.48C87.5835 16.48 87.8368 16.3533 88.0902 16.1C88.3568 15.8333 88.6102 15.5133 88.8502 15.14C89.0902 14.7533 89.3035 14.38 89.4902 14.02C89.6768 13.6467 89.8168 13.3533 89.9102 13.14C89.9768 12.9933 90.0568 12.92 90.1502 12.92C90.2302 12.92 90.2702 12.98 90.2702 13.1C90.2702 13.1133 90.2702 13.14 90.2702 13.18C90.2702 13.2067 90.2568 13.24 90.2302 13.28C90.1102 13.56 89.9435 13.9067 89.7302 14.32C89.5302 14.7333 89.2902 15.1467 89.0102 15.56C88.7302 15.9733 88.4168 16.32 88.0702 16.6C87.7235 16.8667 87.3502 17 86.9502 17ZM83.4902 16.4C83.6768 16.4 83.9102 16.3 84.1902 16.1C84.4702 15.8867 84.7702 15.5533 85.0902 15.1C85.4635 14.5667 85.8902 13.9 86.3702 13.1C86.8502 12.3 87.3235 11.4533 87.7902 10.56C87.6168 10.4 87.4168 10.32 87.1902 10.32C86.8168 10.32 86.3968 10.4933 85.9302 10.84C85.4768 11.1867 85.0302 11.6267 84.5902 12.16C84.1635 12.6933 83.8035 13.2333 83.5102 13.78C83.3102 14.1533 83.1635 14.4933 83.0702 14.8C82.9902 15.1067 82.9502 15.3733 82.9502 15.6C82.9502 16.1333 83.1302 16.4 83.4902 16.4ZM91.333 17.08C90.8396 17.08 90.393 16.92 89.993 16.6C89.6063 16.28 89.413 15.7933 89.413 15.14C89.413 14.54 89.5596 13.9 89.853 13.22C90.1463 12.5267 90.5196 11.92 90.973 11.4C91.3596 10.9467 91.793 10.5733 92.273 10.28C92.753 9.98667 93.2063 9.84 93.633 9.84C93.9263 9.84 94.1796 9.92 94.393 10.08C94.6196 10.2533 94.733 10.5 94.733 10.82C94.733 11.1533 94.6063 11.52 94.353 11.92C94.0996 12.32 93.7396 12.6933 93.273 13.04C93.073 13.1867 92.8196 13.3267 92.513 13.46C92.2063 13.5933 91.8996 13.7067 91.593 13.8C91.2863 13.88 91.033 13.92 90.833 13.92C90.7663 14.08 90.6996 14.2933 90.633 14.56C90.5796 14.8267 90.553 15.1 90.553 15.38C90.553 15.7133 90.6196 16.0133 90.753 16.28C90.8863 16.5467 91.133 16.68 91.493 16.68C91.933 16.68 92.333 16.5533 92.693 16.3C93.053 16.0467 93.373 15.7333 93.653 15.36C93.933 14.9733 94.1663 14.5867 94.353 14.2C94.553 13.8133 94.713 13.4867 94.833 13.22C94.913 13.0333 95.0196 12.94 95.153 12.94C95.2196 12.94 95.253 12.9733 95.253 13.04C95.253 13.0933 95.233 13.16 95.193 13.24C95.0063 13.64 94.8063 14.0667 94.593 14.52C94.3796 14.96 94.1263 15.38 93.833 15.78C93.5396 16.1667 93.1863 16.48 92.773 16.72C92.373 16.96 91.893 17.08 91.333 17.08ZM90.973 13.56C91.1596 13.56 91.473 13.4933 91.913 13.36C92.353 13.2133 92.753 12.9867 93.113 12.68C93.4596 12.3733 93.7263 12.04 93.913 11.68C94.0996 11.3067 94.193 10.9933 94.193 10.74C94.193 10.4467 94.0863 10.3 93.873 10.3C93.713 10.3 93.493 10.4067 93.213 10.62C92.933 10.8333 92.5863 11.1933 92.173 11.7C91.9196 12.02 91.6796 12.3667 91.453 12.74C91.2263 13.1133 91.0663 13.3867 90.973 13.56Z" fill="white"/>
</svg>
